<svg width="1920" height="510" viewBox="0 0 1920 510" fill="none" xmlns="http://www.w3.org/2000/svg">
<g clip-path="url(#clip0_166_79)">
<rect width="1920" height="510" fill="none"/>
<path d="M273.891 185.063V221.745H232.961V326H189.714V221.745H148.785V185.063H273.891ZM408.898 324.262V326H358.316C357.35 316.54 356.771 308.817 355.42 296.847C354.261 285.456 351.558 282.56 338.816 282.56H323.757V326H280.51V185.063H343.063C351.365 185.063 356.771 185.256 363.914 186.028C382.256 188.152 404.265 197.033 404.265 226.186C404.265 245.106 394.805 256.111 379.746 261.903C391.33 266.343 398.087 274.066 399.245 287.194C400.597 301.867 401.755 309.59 403.493 317.891L408.898 324.262ZM323.757 247.809H343.063C354.068 247.809 359.86 243.175 359.86 234.101C359.86 224.255 354.068 219.814 343.063 219.814H323.757V247.809ZM457.394 185.063V326H414.147V185.063H457.394ZM537.467 182.36C581.293 182.36 600.986 203.983 604.075 237.576H561.601C558.705 225.22 549.051 219.814 537.854 219.814C521.25 219.814 510.631 229.468 510.631 254.373C510.631 284.491 524.339 291.248 537.661 291.248C550.21 291.248 558.318 286.036 561.214 273.486H603.689C600.02 311.52 576.08 328.703 536.502 328.703C491.132 328.703 466.227 305.535 466.227 256.497C466.227 214.023 486.885 182.36 537.467 182.36ZM748.172 185.063L705.312 240.086L747.979 326H696.044L670.946 274.838L654.342 295.496V326H611.096V185.063H654.342V246.65L698.554 185.063H748.172ZM828.396 255.531C828.396 280.244 837.856 291.248 855.811 291.248C873.766 291.248 883.227 280.244 883.227 255.531C883.227 230.819 873.766 219.814 855.811 219.814C837.856 219.814 828.396 230.819 828.396 255.531ZM783.991 255.531C783.991 206.3 809.09 182.36 855.811 182.36C902.533 182.36 927.631 206.3 927.631 255.531C927.631 304.763 902.533 328.703 855.811 328.703C809.09 328.703 783.991 304.763 783.991 255.531ZM1064.98 324.262V326H1014.4C1013.43 316.54 1012.85 308.817 1011.5 296.847C1010.34 285.456 1007.64 282.56 994.896 282.56H979.837V326H936.591V185.063H999.144C1007.45 185.063 1012.85 185.256 1019.99 186.028C1038.34 188.152 1060.35 197.033 1060.35 226.186C1060.35 245.106 1050.89 256.111 1035.83 261.903C1047.41 266.343 1054.17 274.066 1055.33 287.194C1056.68 301.867 1057.84 309.59 1059.57 317.891L1064.98 324.262ZM979.837 247.809H999.144C1010.15 247.809 1015.94 243.175 1015.94 234.101C1015.94 224.255 1010.15 219.814 999.144 219.814H979.837V247.809ZM1226.24 185.063V221.745H1185.31V326H1142.07V221.745H1101.14V185.063H1226.24ZM1361.25 324.262V326H1310.67C1309.7 316.54 1309.12 308.817 1307.77 296.847C1306.61 285.456 1303.91 282.56 1291.17 282.56H1276.11V326H1232.86V185.063H1295.42C1303.72 185.063 1309.12 185.256 1316.27 186.028C1334.61 188.152 1356.62 197.033 1356.62 226.186C1356.62 245.106 1347.16 256.111 1332.1 261.903C1343.68 266.343 1350.44 274.066 1351.6 287.194C1352.95 301.867 1354.11 309.59 1355.84 317.891L1361.25 324.262ZM1276.11 247.809H1295.42C1306.42 247.809 1312.21 243.175 1312.21 234.101C1312.21 224.255 1306.42 219.814 1295.42 219.814H1276.11V247.809ZM1492.96 261.709C1492.96 268.467 1492.96 272.521 1492.38 280.437C1490.25 310.555 1472.88 328.703 1429.25 328.703C1385.61 328.703 1367.08 310.555 1364.95 280.437C1364.38 272.521 1364.38 268.467 1364.38 261.709V185.063H1407.62V264.992C1407.62 285.07 1414.77 291.248 1429.25 291.248C1444.3 291.248 1450.87 284.491 1450.87 264.992V185.063H1492.96V261.709ZM1622.44 185.063V221.745H1581.51V326H1538.26V221.745H1497.33V185.063H1622.44ZM1764.2 185.063V326H1720.96V273.679H1672.31V326H1629.06V185.063H1672.31V236.997H1720.96V185.063H1764.2Z" fill="black"/>
</g>
<defs>
<clipPath id="clip0_166_79">
<rect width="1920" height="510" fill="none"/>
</clipPath>
</defs>
</svg>
